<?xml version="1.0" encoding="UTF-8" standalone="no"?>
<svg
   width="167.53"
   height="42.088501"
   viewBox="0 0 167.53 42.088501"
   fill="none"
   version="1.1"
   id="svg1495"
   sodipodi:docname="logo_mentify.svg"
   inkscape:export-filename="Logo.png"
   inkscape:export-xdpi="190"
   inkscape:export-ydpi="190"
   inkscape:version="1.2.2 (732a01da63, 2022-12-09)"
   xmlns:inkscape="http://www.inkscape.org/namespaces/inkscape"
   xmlns:sodipodi="http://sodipodi.sourceforge.net/DTD/sodipodi-0.dtd"
   xmlns="http://www.w3.org/2000/svg"
   xmlns:svg="http://www.w3.org/2000/svg">
  <sodipodi:namedview
     id="namedview1497"
     pagecolor="#ffffff"
     bordercolor="#000000"
     borderopacity="0.25"
     inkscape:showpageshadow="2"
     inkscape:pageopacity="0.0"
     inkscape:pagecheckerboard="0"
     inkscape:deskcolor="#d1d1d1"
     showgrid="false"
     inkscape:zoom="7.1741914"
     inkscape:cx="87.675386"
     inkscape:cy="34.986521"
     inkscape:window-width="1920"
     inkscape:window-height="1017"
     inkscape:window-x="-8"
     inkscape:window-y="-8"
     inkscape:window-maximized="1"
     inkscape:current-layer="Logo" />
  <defs
     id="defs1493" />
  <g
     id="Logo"
     transform="translate(-170.967,-26.983)">
    <g
       id="logo-giza" />
    <g
       id="logo-mentify_11">
      <g
         id="logogram_12">
        <path
           id="Ellipse 3_12"
           d="m 212.137,40.5182 c 0,2.13 0.632,4.2121 1.815,5.9831 1.183,1.771 2.865,3.1513 4.833,3.9664 1.968,0.8151 4.133,1.0284 6.222,0.6128 2.089,-0.4155 4.007,-1.4412 5.513,-2.9473 1.507,-1.5061 2.532,-3.425 2.948,-5.514 0.415,-2.089 0.202,-4.2544 -0.613,-6.2222 -0.815,-1.9678 -2.195,-3.6497 -3.966,-4.8331 -1.771,-1.1833 -3.853,-1.8149 -5.983,-1.8149 v 6.4615 c 0.852,0 1.685,0.2527 2.393,0.726 0.708,0.4733 1.26,1.1461 1.587,1.9332 0.326,0.7872 0.411,1.6533 0.245,2.4889 -0.167,0.8356 -0.577,1.6032 -1.179,2.2056 -0.603,0.6025 -1.37,1.0127 -2.206,1.1789 -0.835,0.1663 -1.701,0.0809 -2.488,-0.2451 -0.788,-0.326 -1.46,-0.8782 -1.934,-1.5866 -0.473,-0.7083 -0.725,-1.5412 -0.725,-2.3932 z"
           fill="#ff3737" />
        <path
           id="Subtract_12"
           fill-rule="evenodd"
           clip-rule="evenodd"
           d="m 212.529,48.7272 c -0.472,1.9236 -0.52,3.9355 -0.13,5.8943 0.525,2.6387 1.82,5.0626 3.722,6.965 1.903,1.9025 4.326,3.1981 6.965,3.7229 2.639,0.5249 5.374,0.2555 7.859,-0.7741 2.486,-1.0296 4.61,-2.7731 6.105,-5.0102 1.494,-2.237 2.292,-4.867 2.292,-7.5575 h -6.801 c 0,1.3452 -0.399,2.6602 -1.146,3.7788 -0.748,1.1185 -1.81,1.9903 -3.052,2.5051 -1.243,0.5148 -2.611,0.6495 -3.93,0.387 -1.319,-0.2624 -2.531,-0.9102 -3.482,-1.8614 -0.952,-0.9513 -1.599,-2.1632 -1.862,-3.4826 -0.01,-0.0503 -0.019,-0.1006 -0.028,-0.151 -2.598,-0.7844 -4.859,-2.3467 -6.512,-4.4163 z"
           fill="#ff8e4e" />
      </g>
      <path
         id="m_11"
         d="m 199.378,36.4539 c 2.699,0 4.821,0.8383 6.366,2.515 1.546,1.6506 2.319,3.9561 2.319,6.9165 v 12.7327 h -6.681 V 46.6714 c 0,-1.3885 -0.379,-2.4627 -1.139,-3.2225 -0.734,-0.7859 -1.742,-1.1789 -3.026,-1.1789 -1.336,0 -2.397,0.4192 -3.183,1.2575 -0.76,0.8122 -1.139,1.965 -1.139,3.4583 v 11.6323 h -6.72 V 46.6714 c 0,-1.3885 -0.367,-2.4627 -1.1,-3.2225 -0.734,-0.7859 -1.742,-1.1789 -3.026,-1.1789 -1.336,0 -2.397,0.4061 -3.183,1.2182 -0.786,0.8122 -1.179,1.9781 -1.179,3.4976 v 11.6323 h -6.72 V 36.6896 h 6.72 v 3.7334 c 0.576,-1.2314 1.454,-2.2007 2.633,-2.9081 1.205,-0.7074 2.606,-1.061 4.205,-1.061 1.676,0 3.156,0.3929 4.44,1.1789 1.284,0.7598 2.253,1.8601 2.908,3.3011 0.76,-1.3624 1.794,-2.4496 3.104,-3.2618 1.336,-0.8122 2.803,-1.2182 4.401,-1.2182 z"
         fill="#9d1f64" />
      <g
         id="ntify_11">
        <path
           d="m 256.78,36.4539 c 2.515,0 4.506,0.8384 5.973,2.5151 1.494,1.6767 2.24,3.9822 2.24,6.9165 v 12.7326 h -6.719 V 46.6715 c 0,-1.4672 -0.393,-2.6068 -1.179,-3.419 -0.76,-0.8384 -1.782,-1.2575 -3.065,-1.2575 -1.362,0 -2.45,0.4322 -3.262,1.2968 -0.786,0.8646 -1.179,2.0959 -1.179,3.694 V 58.6181 H 242.87 V 36.6897 h 6.719 v 4.0084 c 0.629,-1.3099 1.559,-2.3448 2.79,-3.1045 1.258,-0.7598 2.725,-1.1397 4.401,-1.1397 z"
           fill="#9d1f64"
           id="path794" />
        <path
           d="m 281.578,52.8413 v 5.7768 h -3.026 c -2.567,0 -4.571,-0.6287 -6.012,-1.8863 -1.415,-1.2837 -2.122,-3.3927 -2.122,-6.327 v -8.0562 h -2.947 v -5.6589 h 2.947 v -5.3839 h 6.72 v 5.3839 h 4.401 v 5.6589 h -4.401 v 8.1741 c 0,0.8645 0.17,1.4671 0.511,1.8077 0.366,0.3406 0.969,0.5109 1.807,0.5109 z"
           fill="#9d1f64"
           id="path796" />
        <path
           d="m 284.462,30.5199 c 0,-1.0218 0.366,-1.8601 1.1,-2.5151 0.733,-0.6812 1.703,-1.0218 2.908,-1.0218 1.205,0 2.174,0.3406 2.908,1.0218 0.733,0.655 1.1,1.4933 1.1,2.5151 0,0.9955 -0.367,1.8339 -1.1,2.5151 -0.734,0.6549 -1.703,0.9824 -2.908,0.9824 -1.205,0 -2.175,-0.3275 -2.908,-0.9824 -0.734,-0.6812 -1.1,-1.5196 -1.1,-2.5151 z m 7.348,6.1698 v 21.9284 h -6.72 V 36.6897 Z"
           fill="#9d1f64"
           id="path798" />
        <path
           d="m 306.952,33.703 c -1.1,0 -1.899,0.2358 -2.397,0.7074 -0.498,0.4716 -0.773,1.2313 -0.825,2.2793 h 3.968 v 5.6589 h -3.968 v 16.2695 h -6.72 V 42.3486 h -2.633 v -5.6589 h 2.633 v -0.2358 c 0,-2.7247 0.786,-4.8206 2.358,-6.2877 1.598,-1.4933 3.903,-2.24 6.916,-2.24 0.629,0 1.1,0.0131 1.414,0.0393 v 5.7768 z"
           fill="#9d1f64"
           id="path800" />
        <path
           d="m 315.457,36.6897 5.265,13.44 4.912,-13.44 h 7.427 l -13.675,32.3818 h -7.387 l 5.147,-11.2786 -9.195,-21.1032 z"
           fill="#9d1f64"
           id="path802" />
      </g>
      <g
         id="TM">
        <path
           d="m 334.976,31.3989 h -0.921 v 2.5066 h -0.62 v -2.5066 h -0.909 v -0.5021 h 2.45 z"
           fill="#9d1f64"
           id="path805" />
        <path
           d="m 336.142,30.8968 0.773,2.1821 0.768,-2.1821 h 0.814 v 3.0087 h -0.621 v -0.8224 l 0.062,-1.4197 -0.813,2.2421 H 336.7 l -0.81,-2.24 0.062,1.4176 v 0.8224 h -0.62 v -3.0087 z"
           fill="#9d1f64"
           id="path807" />
      </g>
    </g>
  </g>
</svg>
